<svg xmlns="http://www.w3.org/2000/svg" width="933.333" height="933.333" version="1.0" viewBox="0 0 700 700">
  <path d="M52.8 1C27.7 5.3 6.3 24.8 1.5 47.7.2 53.5 0 97.5 0 350.5c0 326.3-.5 301.6 6.2 315.4 4.9 10 16.8 21.6 27.8 26.9 16 7.8-10.1 7.2 316 7.2s300 .6 316-7.2c11-5.3 22.9-16.9 27.8-26.9 6.7-13.8 6.2 10.9 6.2-315.4 0-253-.2-297-1.5-302.8-4.2-20-21-37.5-43-44.9l-7-2.3L353 .4C190.5.3 55.4.6 52.8 1zm345.4 118.5c23 2.7 40.7 7.7 56 15.7 28.7 15.3 50 44.5 57.4 78.8 2.4 11.4 2.4 33.4 0 44.4-5 22.3-18.5 45.7-33.8 58.8-6.2 5.3-21 15.4-23.9 16.3-3 1-2.2 2.1 2.4 3.4 6.7 2.1 23.8 10.4 30.8 15.1 11.9 8 25.6 22.6 32.8 34.8 20 33.9 20.8 82.1 2 122.1-19.2 41.1-51.3 62.3-107 70.6-17.3 2.6-50.7 3.5-136.6 3.5H196V118h94.8c77.5 0 97 .3 107.4 1.5z"/>
  <path d="M255 243v70.2l65.8-.5c60.3-.4 66.6-.6 76.4-2.5 33-6.2 51.3-22.9 56.9-51.9 1.5-8 .7-27.8-1.5-35.8-2.6-9.4-8.9-21.4-14.9-28-9.3-10.2-21.2-15.9-40.3-19.1-8.4-1.4-20.1-1.8-76.1-2.1l-66.3-.5V243zm.2 204.7l.3 79.8 53.5.3c57.7.3 92.6-.8 103.3-3.3 9.1-2.1 20-6.1 26.7-9.8 8.9-5 20.7-17.7 25.7-27.7 7.7-15.3 10.5-32.4 8.4-50-4-32.4-22.9-54.5-54.1-63.1-17.8-4.9-23.5-5.2-95.8-5.6l-68.2-.4.2 79.8z"/>
</svg>
