<?xml version="1.0" standalone="no"?>
<!DOCTYPE svg PUBLIC "-//W3C//DTD SVG 20010904//EN"
 "http://www.w3.org/TR/2001/REC-SVG-20010904/DTD/svg10.dtd">
<svg version="1.0" xmlns="http://www.w3.org/2000/svg"
 width="700.000000pt" height="700.000000pt" viewBox="0 0 700.000000 700.000000"
 preserveAspectRatio="xMidYMid meet">
<metadata>
Created by potrace 1.11, written by Peter Selinger 2001-2013
</metadata>
<g transform="translate(0.000000,700.000000) scale(0.100000,-0.100000)"
fill="#000000" stroke="none">
<path d="M528 6990 c-251 -43 -465 -238 -513 -467 -13 -58 -15 -498 -15 -3028
0 -3263 -5 -3016 62 -3154 49 -100 168 -216 278 -269 160 -78 -101 -72 3160
-72 3261 0 3000 -6 3160 72 110 53 229 169 278 269 67 138 62 -109 62 3154 0
2530 -2 2970 -15 3028 -42 200 -210 375 -430 449 l-70 23 -2955 1 c-1625 1
-2976 -2 -3002 -6z m3372 -924 c312 -46 509 -115 705 -245 89 -59 227 -195
294 -291 102 -145 189 -345 227 -520 27 -126 25 -384 -4 -501 -88 -356 -265
-598 -575 -787 l-96 -59 57 -17 c98 -30 293 -131 382 -196 249 -184 406 -433
477 -755 24 -112 29 -379 9 -510 -20 -129 -55 -264 -92 -354 -238 -586 -654
-846 -1457 -911 -77 -6 -541 -10 -1173 -10 l-1044 0 0 2591 0 2590 1088 -4
c962 -3 1100 -6 1202 -21z"/>
<path d="M2270 4694 l0 -786 698 5 c740 5 838 11 1002 57 259 73 439 249 501
490 31 123 29 329 -6 465 -49 192 -186 367 -345 442 -196 93 -430 113 -1307
113 l-543 0 0 -786z"/>
<path d="M2270 2410 l0 -890 698 0 c383 0 762 5 842 10 433 29 703 201 833
530 85 217 78 530 -17 735 -102 220 -267 361 -502 429 -225 66 -383 76 -1176
76 l-678 0 0 -890z"/>
</g>
</svg>
