<?xml version="1.0" standalone="no"?>
<!DOCTYPE svg PUBLIC "-//W3C//DTD SVG 20010904//EN"
 "http://www.w3.org/TR/2001/REC-SVG-20010904/DTD/svg10.dtd">
<svg version="1.0" xmlns="http://www.w3.org/2000/svg"
 width="700.000000pt" height="700.000000pt" viewBox="0 0 700.000000 700.000000"
 preserveAspectRatio="xMidYMid meet">
<metadata>
Created by potrace 1.11, written by Peter Selinger 2001-2013
</metadata>
<g transform="translate(0.000000,700.000000) scale(0.100000,-0.100000)"
fill="#000000" stroke="none">
<path d="M550 6992 c-68 -9 -181 -47 -237 -78 -137 -76 -233 -193 -292 -354
-14 -41 -16 -297 -18 -3035 -1 -2446 1 -3001 12 -3051 23 -106 71 -191 160
-280 90 -91 178 -141 305 -174 73 -19 140 -20 3016 -20 l2941 0 84 21 c190 48
339 164 417 324 66 135 62 -107 61 3160 0 2803 -1 2974 -18 3035 -27 101 -77
187 -156 266 -92 93 -193 148 -330 180 -30 7 -5897 13 -5945 6z"/>
</g>
</svg>
