<svg xmlns="http://www.w3.org/2000/svg" width="200" height="200" viewBox="0 0 200 200">
  <path fill="#00AFEC" d="M200 183.004c0 9.387-8.141 16.996-18.182 16.996H18.182C8.142 200 0 192.391 0 183.004V17.044C0 7.657 8.14.048 18.182.048H181.82c10.039 0 18.18 7.61 18.18 16.996v165.96z"/>
  <path fill="#FFF" d="M55.957 166.439V33.608h48.234c9.823 0 17.709 1.343 23.639 4.03 5.931 2.689 10.581 6.827 13.947 12.413 3.357 5.592 5.038 11.434 5.038 17.533 0 5.682-1.491 11.025-4.471 16.039-2.982 5.014-7.482 9.062-13.507 12.144 7.776 2.354 13.756 6.372 17.938 12.052 4.182 5.677 6.268 12.382 6.268 20.114 0 6.22-1.273 12.003-3.814 17.35s-5.686 9.47-9.427 12.367c-3.742 2.9-8.436 5.089-14.075 6.567-5.645 1.481-12.556 2.223-20.74 2.223h-49.03zM72.971 89.42h27.804c7.542 0 12.949-.511 16.229-1.539 4.324-1.328 7.581-3.535 9.775-6.615 2.193-3.08 3.291-6.944 3.291-11.596 0-4.411-1.029-8.293-3.069-11.643-2.049-3.355-4.973-5.649-8.771-6.887-3.8-1.247-10.323-1.857-19.559-1.857h-25.7V89.42zm0 61.347h32.014c5.494 0 9.352-.213 11.576-.633 3.917-.727 7.188-1.936 9.821-3.627 2.63-1.692 4.796-4.155 6.488-7.384 1.701-3.232 2.541-6.962 2.541-11.189 0-4.944-1.223-9.254-3.681-12.916-2.46-3.644-5.868-6.219-10.217-7.7-4.356-1.48-10.625-2.216-18.813-2.216H72.971v45.671-.006z"/>
</svg>
