<svg xmlns="http://www.w3.org/2000/svg" width="200" height="200"><path fill="#00AFEC" d="M200 183.004c0 9.387-8.14 16.996-18.182 16.996H18.182C8.142 200 0 192.39 0 183.004V17.044C0 7.657 8.14.048 18.182.048H181.82c10.04 0 18.18 7.61 18.18 16.996v165.96z"/><path fill="#FFF" d="M45.913 174.024v-148h53.743c10.945 0 19.73 1.496 26.337 4.49 6.608 2.996 11.79 7.606 15.54 13.83 3.742 6.23 5.613 12.74 5.613 19.536 0 6.33-1.66 12.284-4.98 17.87-3.322 5.587-8.337 10.096-15.05 13.53 8.665 2.624 15.327 7.1 19.987 13.428 4.658 6.325 6.983 13.797 6.983 22.412 0 6.93-1.418 13.373-4.25 19.33-2.832 5.958-6.335 10.552-10.503 13.78-4.17 3.232-9.4 5.67-15.682 7.318-6.29 1.65-13.99 2.475-23.11 2.475H45.92zM64.87 88.21h30.98c8.403 0 14.427-.57 18.082-1.715 4.818-1.48 8.446-3.938 10.89-7.37 2.445-3.432 3.668-7.738 3.668-12.92 0-4.915-1.146-9.24-3.42-12.973-2.283-3.738-5.54-6.294-9.773-7.673-4.234-1.39-11.502-2.07-21.792-2.07H64.87v44.72zm0 68.35h35.67c6.122 0 10.42-.236 12.898-.705 4.365-.808 8.01-2.155 10.944-4.04 2.93-1.886 5.342-4.63 7.23-8.227 1.894-3.602 2.83-7.757 2.83-12.467 0-5.51-1.363-10.31-4.102-14.39-2.74-4.06-6.537-6.93-11.382-8.58-4.855-1.65-11.84-2.47-20.962-2.47H64.87v50.888z"/></svg>