<?xml version="1.0" encoding="utf-8"?>
<!-- Generator: Adobe Illustrator 16.0.0, SVG Export Plug-In . SVG Version: 6.00 Build 0)  -->
<!DOCTYPE svg PUBLIC "-//W3C//DTD SVG 1.1//EN" "http://www.w3.org/Graphics/SVG/1.1/DTD/svg11.dtd" [
	<!ENTITY ns_flows "http://ns.adobe.com/Flows/1.0/">
	<!ENTITY ns_extend "http://ns.adobe.com/Extensibility/1.0/">
	<!ENTITY ns_ai "http://ns.adobe.com/AdobeIllustrator/10.0/">
	<!ENTITY ns_graphs "http://ns.adobe.com/Graphs/1.0/">
]>
<svg version="1.1" id="Layer_1" xmlns:x="&ns_extend;" xmlns:i="&ns_ai;" xmlns:graph="&ns_graphs;"
	 xmlns="http://www.w3.org/2000/svg" xmlns:xlink="http://www.w3.org/1999/xlink" xmlns:a="http://ns.adobe.com/AdobeSVGViewerExtensions/3.0/"
	 x="0px" y="0px" width="200px" height="200px" viewBox="0 0 200 200" enable-background="new 0 0 200 200" xml:space="preserve">
<g>
	<path fill="#00AFEC" d="M200,183.004c0,9.387-8.141,16.996-18.182,16.996H18.182C8.141,200,0,192.391,0,183.004V17.044
		C0,7.657,8.141,0.048,18.182,0.048h163.637C191.859,0.048,200,7.657,200,17.044V183.004z"/>
	<g>
		<g>
			<path fill="#FFFFFF" d="M45.913,174.024v-148h53.743c10.945,0,19.729,1.496,26.337,4.491c6.608,2.995,11.791,7.605,15.539,13.829
				c3.743,6.229,5.614,12.739,5.614,19.536c0,6.329-1.659,12.284-4.981,17.869c-3.321,5.588-8.336,10.097-15.048,13.53
				c8.664,2.625,15.326,7.102,19.986,13.429c4.658,6.325,6.983,13.797,6.983,22.412c0,6.93-1.418,13.373-4.251,19.331
				c-2.831,5.957-6.334,10.551-10.502,13.78c-4.169,3.231-9.401,5.67-15.682,7.317c-6.297,1.651-13.995,2.475-23.112,2.475H45.913z
				 M64.871,88.211h30.977c8.403,0,14.427-0.571,18.082-1.716c4.818-1.48,8.446-3.938,10.891-7.369
				c2.444-3.433,3.667-7.739,3.667-12.921c0-4.915-1.146-9.24-3.421-12.973c-2.282-3.738-5.539-6.294-9.772-7.673
				c-4.234-1.382-11.502-2.07-21.792-2.07H64.871V88.211z M64.871,156.56h35.669c6.122,0,10.421-0.236,12.898-0.705
				c4.365-0.808,8.009-2.155,10.944-4.04c2.93-1.886,5.342-4.629,7.23-8.227c1.894-3.602,2.831-7.757,2.831-12.467
				c0-5.519-1.364-10.314-4.103-14.391c-2.739-4.068-6.537-6.932-11.382-8.579c-4.855-1.65-11.84-2.476-20.962-2.476H64.871V156.56z
				"/>
		</g>
	</g>
</g>
</svg>
