<svg width="15" height="16" viewBox="0 0 15 16" fill="none" xmlns="http://www.w3.org/2000/svg">
<path d="M5.01714 12.4188C5.01714 12.4813 4.94758 12.5313 4.85988 12.5313C4.76008 12.5406 4.69052 12.4906 4.69052 12.4188C4.69052 12.3563 4.76008 12.3063 4.84778 12.3063C4.93851 12.2969 5.01714 12.3469 5.01714 12.4188ZM4.07661 12.2781C4.05544 12.3406 4.11593 12.4125 4.20665 12.4313C4.28528 12.4625 4.37601 12.4313 4.39415 12.3688C4.4123 12.3063 4.35484 12.2344 4.26411 12.2063C4.18548 12.1844 4.09778 12.2156 4.07661 12.2781ZM5.41331 12.225C5.3256 12.2469 5.26512 12.3063 5.27419 12.3781C5.28327 12.4406 5.3619 12.4813 5.45262 12.4594C5.54032 12.4375 5.60081 12.3781 5.59173 12.3156C5.58266 12.2563 5.50101 12.2156 5.41331 12.225ZM7.40323 0.25C3.20867 0.25 0 3.54063 0 7.875C0 11.3406 2.11089 14.3063 5.12601 15.35C5.5131 15.4219 5.64919 15.175 5.64919 14.9719C5.64919 14.7781 5.64012 13.7094 5.64012 13.0531C5.64012 13.0531 3.52319 13.5219 3.07863 12.1219C3.07863 12.1219 2.73387 11.2125 2.2379 10.9781C2.2379 10.9781 1.54536 10.4875 2.28629 10.4969C2.28629 10.4969 3.03931 10.5594 3.45363 11.3031C4.11593 12.5094 5.22581 12.1625 5.65827 11.9563C5.72782 11.4563 5.9244 11.1094 6.14214 10.9031C4.45161 10.7094 2.74597 10.4563 2.74597 7.45C2.74597 6.59063 2.97581 6.15938 3.45968 5.60938C3.38105 5.40625 3.12399 4.56875 3.53831 3.4875C4.17036 3.28438 5.625 4.33125 5.625 4.33125C6.22984 4.15625 6.88004 4.06563 7.52419 4.06563C8.16835 4.06563 8.81855 4.15625 9.42339 4.33125C9.42339 4.33125 10.878 3.28125 11.5101 3.4875C11.9244 4.57188 11.6673 5.40625 11.5887 5.60938C12.0726 6.1625 12.369 6.59375 12.369 7.45C12.369 10.4656 10.5877 10.7063 8.89718 10.9031C9.1754 11.15 9.41129 11.6188 9.41129 12.3531C9.41129 13.4063 9.40222 14.7094 9.40222 14.9656C9.40222 15.1688 9.54133 15.4156 9.9254 15.3438C12.9496 14.3063 15 11.3406 15 7.875C15 3.54063 11.5978 0.25 7.40323 0.25ZM2.93952 11.0281C2.9002 11.0594 2.90927 11.1313 2.96069 11.1906C3.00907 11.2406 3.07863 11.2625 3.11794 11.2219C3.15726 11.1906 3.14819 11.1188 3.09677 11.0594C3.04839 11.0094 2.97883 10.9875 2.93952 11.0281ZM2.6129 10.775C2.59173 10.8156 2.62198 10.8656 2.68246 10.8969C2.73085 10.9281 2.79133 10.9188 2.8125 10.875C2.83367 10.8344 2.80343 10.7844 2.74294 10.7531C2.68246 10.7344 2.63407 10.7438 2.6129 10.775ZM3.59274 11.8875C3.54435 11.9281 3.5625 12.0219 3.63206 12.0813C3.70161 12.1531 3.78931 12.1625 3.82863 12.1125C3.86794 12.0719 3.8498 11.9781 3.78931 11.9188C3.72278 11.8469 3.63206 11.8375 3.59274 11.8875ZM3.24798 11.4281C3.1996 11.4594 3.1996 11.5406 3.24798 11.6125C3.29637 11.6844 3.37802 11.7156 3.41734 11.6844C3.46573 11.6438 3.46573 11.5625 3.41734 11.4906C3.375 11.4188 3.29637 11.3875 3.24798 11.4281Z" fill="#39496B"/>
</svg>
