<svg xmlns="http://www.w3.org/2000/svg" width="45" height="45" viewBox="0 0 163 144"><title>StackPath Logo</title><path fill="#00aeef" fill-rule="evenodd" d="M145.4 38.7H59c-11.1 0-20.2 9-20.2 20.2 0 11.1 9 20.2 20.2 20.2h44.7c3.3 0 5.9 2.7 5.9 5.9 0 3.3-2.7 5.9-5.9 5.9H59c-17.7 0-32-14.4-32-32s14.4-32 32-32h79.5L126.2 5.7c-2-3.5-5.8-5.7-9.9-5.7H46.4c-4.1 0-7.9 2.2-9.9 5.7l-35 60.6c-2 3.5-2 7.9 0 11.5l15.9 27.5h86.3c11.1 0 20.2-9 20.2-20.2 0-11.1-9-20.2-20.2-20.2H59.1c-3.3 0-5.9-2.7-5.9-5.9 0-3.3 2.7-5.9 5.9-5.9h44.7c17.7 0 32 14.4 32 32 0 17.7-14.4 32-32 32H24.2l12.2 21.2c2 3.5 5.8 5.7 9.9 5.7h69.9c4.1 0 7.9-2.2 9.9-5.7l35-60.6c2-3.5 2-7.9 0-11.5l-15.7-27.5z"/></svg>