<?xml version="1.0" encoding="UTF-8"?>
<svg width="163px" height="144px" viewBox="0 0 163 144" version="1.1" xmlns="http://www.w3.org/2000/svg" xmlns:xlink="http://www.w3.org/1999/xlink">
    <!-- Generator: Sketch 41.2 (35397) - http://www.bohemiancoding.com/sketch -->
    <title>Shape</title>
    <desc>Created with Sketch.</desc>
    <defs></defs>
    <g id="Page-1" stroke="none" stroke-width="1" fill="none" fill-rule="evenodd">
        <path d="M145.4,38.7 L59,38.7 C47.9,38.7 38.8,47.7 38.8,58.9 C38.8,70 47.8,79.1 59,79.1 L103.7,79.1 C107,79.1 109.6,81.8 109.6,85 C109.6,88.3 106.9,90.9 103.7,90.9 L59,90.9 C41.3,90.9 27,76.5 27,58.9 C27,41.3 41.4,26.9 59,26.9 L138.5,26.9 L126.2,5.7 C124.2,2.2 120.4,2.13162821e-14 116.3,2.13162821e-14 L46.4,2.13162821e-14 C42.3,2.13162821e-14 38.5,2.2 36.5,5.7 L1.5,66.3 C-0.5,69.8 -0.5,74.2 1.5,77.8 L17.4,105.3 L103.7,105.3 C114.8,105.3 123.9,96.3 123.9,85.1 C123.9,74 114.9,64.9 103.7,64.9 L59.1,64.9 C55.8,64.9 53.2,62.2 53.2,59 C53.2,55.7 55.9,53.1 59.1,53.1 L103.8,53.1 C121.5,53.1 135.8,67.5 135.8,85.1 C135.8,102.8 121.4,117.1 103.8,117.1 L24.2,117.1 L36.4,138.3 C38.4,141.8 42.2,144 46.3,144 L116.2,144 C120.3,144 124.1,141.8 126.1,138.3 L161.1,77.7 C163.1,74.2 163.1,69.8 161.1,66.2 L145.4,38.7 Z" id="Shape" fill="#00AEEF"></path>
    </g>
</svg>