<svg xmlns="http://www.w3.org/2000/svg" width="160" height="45" viewBox="0 0 200 56"><style>.st0{fill:#fff}</style><path d="M0 0h200v56H0z"/><path d="M89.323 31.362l.03.092c-.102 2.639-.876 4.651-2.322 6.043-1.446 1.39-3.544 2.085-6.292 2.085-2.759 0-5.004-.855-6.73-2.565-1.728-1.709-2.59-3.93-2.59-6.658v-4.696c0-2.721.829-4.936 2.489-6.653 1.661-1.714 3.82-2.572 6.478-2.572 2.82 0 4.977.717 6.468 2.148 1.493 1.431 2.336 3.467 2.53 6.103l-.031.093H84.31c-.071-1.462-.396-2.55-.973-3.26-.579-.711-1.562-1.066-2.951-1.066-1.176 0-2.101.476-2.775 1.429-.674.954-1.011 2.202-1.011 3.746v4.729c0 1.555.368 2.812 1.104 3.769.736.958 1.748 1.437 3.036 1.437 1.246 0 2.13-.334 2.651-1.005.522-.669.819-1.734.891-3.198h5.041zm-60.192 1.913c0-.793-.261-1.406-.781-1.839-.521-.432-1.457-.89-2.806-1.375-2.82-.896-4.91-1.855-6.269-2.882-1.359-1.024-2.039-2.505-2.039-4.441 0-1.885.809-3.41 2.43-4.573 1.62-1.165 3.675-1.747 6.17-1.747 2.473 0 4.499.641 6.078 1.923 1.578 1.282 2.342 2.934 2.291 4.952l-.031.093h-5.027c0-.895-.302-1.626-.906-2.186-.603-.561-1.435-.842-2.499-.842-1.042 0-1.86.232-2.453.696-.593.464-.888 1.035-.888 1.715 0 .66.298 1.188.896 1.585.599.396 1.719.893 3.364 1.491 2.535.762 4.444 1.699 5.726 2.811 1.282 1.112 1.923 2.643 1.923 4.589 0 1.977-.763 3.525-2.291 4.643-1.527 1.117-3.554 1.676-6.078 1.676-2.535 0-4.726-.641-6.575-1.923-1.85-1.283-2.75-3.13-2.698-5.539l.031-.093h5.043c0 1.297.347 2.225 1.042 2.78.695.557 1.748.834 3.158.834 1.074 0 1.872-.216 2.4-.648.526-.434.789-1.001.789-1.7m6.39-16.708v4.449h6.108V39.37h4.637V21.016h6.071v-4.449zm111.051 0v4.449h6.109V39.37h4.638V21.016h6.069v-4.449zm32.162 0v9.161h-7.542v-9.161h-4.599V39.37h4.599v-9.197h7.542v9.197h4.599V16.567zm-61.015 14.982v7.815h-5.268V16.561h8.477c2.683 0 4.812.692 6.387 2.076 1.574 1.384 2.362 3.192 2.362 5.427 0 2.244-.789 4.054-2.362 5.426-1.575 1.374-3.704 2.06-6.387 2.06h-3.209zm0-4.071h3.209c1.14 0 2.007-.315 2.603-.947.596-.631.894-1.443.894-2.434 0-1.014-.298-1.843-.894-2.492-.595-.646-1.462-.97-2.603-.97h-3.209v6.843zm-8.47 10.823c-2.66-3.08-6.816-7.855-8.989-10.408l8.989-10.445v-.881h-5.217c-2.413 2.851-4.79 5.589-7.203 8.436v-8.436h-4.6V39.37h4.6v-8.437l7.24 8.437h5.181v-1.069zm26.601-21.735l-7.845 22.803h4.902l8.033-22.803zm-77.66 0l-7.844 22.803h4.902l8.033-22.803z" class="st0"/><linearGradient id="SVGID_1_" x1="74.007" x2="59.786" y1="31.344" y2="26.168" gradientUnits="userSpaceOnUse"><stop offset=".056" stop-color="#FFF"/><stop offset="1" stop-color="#FFF" stop-opacity=".2"/></linearGradient><path fill="url(#SVGID_1_)" d="M63.281 16.567l-2.454 6.966 2.454 7.021h-4.928l-1.565 4.444h7.888l1.507 4.371h4.903z"/><linearGradient id="SVGID_2_" x1="151.667" x2="137.446" y1="31.344" y2="26.168" gradientUnits="userSpaceOnUse"><stop offset=".056" stop-color="#FFF"/><stop offset="1" stop-color="#FFF" stop-opacity=".2"/></linearGradient><path fill="url(#SVGID_2_)" d="M140.94 16.567l-2.454 6.966 2.454 7.021h-4.927l-1.566 4.444h7.888l1.508 4.371h4.903z"/><path d="M186.562 16.945h-.696v1.895h-.469v-1.895h-.688v-.379h1.853v.379zm.878-.38l.584 1.649.581-1.649h.615v2.274h-.47v-.622l.047-1.073-.614 1.695h-.321l-.612-1.693.047 1.072v.622h-.469v-2.274h.612z" class="st0" opacity=".5"/></svg>