<?xml version="1.0" encoding="utf-8"?>
<!-- Generator: Adobe Illustrator 22.1.0, SVG Export Plug-In . SVG Version: 6.00 Build 0)  -->
<svg version="1.1" id="Moniker" xmlns="http://www.w3.org/2000/svg" xmlns:xlink="http://www.w3.org/1999/xlink" x="0px" y="0px"
	 viewBox="0 0 74 74" style="enable-background:new 0 0 74 74;" xml:space="preserve">
<style type="text/css">
	.st0{fill:#FFFFFF;}
</style>
<g>
	<rect width="74" height="74"/>
	<g>
		<path class="st0" d="M19.766,42.289c0-0.794-0.263-1.406-0.789-1.841c-0.526-0.433-1.469-0.891-2.83-1.376
			c-2.845-0.897-4.953-1.858-6.324-2.884c-1.372-1.026-2.058-2.507-2.058-4.446c0-1.887,0.817-3.412,2.451-4.577
			c1.634-1.166,3.708-1.748,6.224-1.748c2.496,0,4.54,0.641,6.133,1.925c1.592,1.283,2.363,2.937,2.311,4.956l-0.031,0.094h-5.072
			c0-0.897-0.304-1.627-0.913-2.189c-0.609-0.561-1.449-0.842-2.521-0.842c-1.051,0-1.876,0.232-2.475,0.696
			c-0.598,0.465-0.896,1.036-0.896,1.716c0,0.66,0.301,1.189,0.904,1.586c0.603,0.397,1.734,0.894,3.394,1.492
			c2.558,0.762,4.483,1.701,5.777,2.815c1.293,1.113,1.94,2.644,1.94,4.593c0,1.98-0.771,3.529-2.312,4.647
			c-1.54,1.118-3.585,1.678-6.131,1.678c-2.556,0-4.768-0.641-6.633-1.925c-1.867-1.284-2.774-3.132-2.722-5.544l0.031-0.093h5.088
			c0,1.298,0.351,2.227,1.052,2.783c0.7,0.557,1.763,0.835,3.185,0.835c1.083,0,1.889-0.216,2.421-0.649
			C19.501,43.557,19.766,42.99,19.766,42.289"/>
		<polygon class="st0" points="61.673,25.566 53.759,48.39 54.555,48.39 58.705,48.39 66.808,25.566 		"/>
		<polygon class="st0" points="52.181,25.566 44.268,48.39 49.214,48.39 57.317,25.566 		"/>
		<path class="st0" d="M33.639,36.487h3.238c1.149,0,2.025-0.316,2.625-0.949c0.601-0.632,0.901-1.444,0.901-2.437
			c0-1.014-0.3-1.844-0.901-2.493c-0.601-0.647-1.476-0.971-2.625-0.971h-3.238V36.487z M33.639,40.563v7.823h-5.314V25.561h8.552
			c2.707,0,4.854,0.693,6.442,2.077c1.588,1.386,2.383,3.196,2.383,5.432c0,2.247-0.795,4.058-2.383,5.432
			c-1.588,1.375-3.736,2.061-6.442,2.061H33.639z"/>
	</g>
</g>
</svg>
